HIERARCHY
ROOT Hips
{
	OFFSET 0.00000 0.00000 0.00000
	CHANNELS 6 Xposition Yposition Zposition Zrotation Yrotation Xrotation 
	JOINT RightUpLegDummy
	{
		OFFSET 0 0 0
		CHANNELS 3 Zrotation Yrotation Xrotation
		JOINT RightUpLeg
		{
			OFFSET -3.52197 -3.41223 0.04002
			CHANNELS 3 Zrotation Yrotation Xrotation
			JOINT RightLeg
			{
				OFFSET 0.00006 -17.42390 1.60435
				CHANNELS 3 Zrotation Yrotation Xrotation
				JOINT RightFoot
				{
					OFFSET 0.06153 -16.50078 -1.63901
					CHANNELS 3 Zrotation Yrotation Xrotation
					JOINT RightToes
					{
						OFFSET 0.00298 -1.73825 3.34613
						CHANNELS 3 Zrotation Yrotation Xrotation
						End Site
						{
							OFFSET 0.00480 -0.05416 3.85043
						}
					}
				}
			}
		}
	}
	JOINT SpineDummy
	{
		OFFSET 0 0 0
		CHANNELS 3 Zrotation Yrotation Xrotation
		JOINT Spine
		{
			OFFSET 0.00000 4.68130 0.00000
			CHANNELS 3 Zrotation Yrotation Xrotation
			JOINT Spine1
			{
				OFFSET -0.00000 10.10138 0.05002
				CHANNELS 3 Zrotation Yrotation Xrotation
				JOINT HEadDummy
				{
					OFFSET 0 0 0
					CHANNELS 3 Zrotation Yrotation Xrotation
					JOINT Head
					{
						OFFSET -0.00000 3.43865 0.00438
						CHANNELS 3 Zrotation Yrotation Xrotation
						End Site
						{
							OFFSET -0.11417 5.02924 0.98962
						}
					}
				}
				JOINT LeftShoulder1Dummy
				{
					OFFSET 0 0 0
					CHANNELS 3 Zrotation Yrotation Xrotation
					JOINT LeftShoulder1
					{
						OFFSET 3.53937 -0.14262 -0.08662
						CHANNELS 3 Zrotation Yrotation Xrotation
						JOINT LeftArm
						{
							OFFSET 4.04833 -0.00133 0.12681
							CHANNELS 3 Zrotation Yrotation Xrotation
							JOINT LeftForeArm
							{
								OFFSET 10.33880 -0.01036 -0.55515
								CHANNELS 3 Zrotation Yrotation Xrotation
								JOINT LeftHand
								{
									OFFSET 8.69677 0.07543 0.40060
									CHANNELS 3 Zrotation Yrotation Xrotation
									End Site
									{
										OFFSET 5.28377 -0.21905 0.59205
									}
								}
							}
						}
					}
				}
				JOINT RightShoulderDummy
				{
					OFFSET 0 0 0
					CHANNELS 3 Zrotation Yrotation Xrotation
					JOINT RightShoulder
					{
						OFFSET -3.53937 -0.14262 -0.08660
						CHANNELS 3 Zrotation Yrotation Xrotation
						JOINT RightArm
						{
							OFFSET -4.04833 -0.00133 0.12683
							CHANNELS 3 Zrotation Yrotation Xrotation
							JOINT RightForeArm
							{
								OFFSET -10.37987 -0.01039 -0.55511
								CHANNELS 3 Zrotation Yrotation Xrotation
								JOINT RightHand
								{
									OFFSET -8.67398 0.07538 0.40058
									CHANNELS 3 Zrotation Yrotation Xrotation
									End Site
									{
										OFFSET -5.24810 -0.21916 0.59204
									}
								}
							}
						}
					}
				}
			}
		}
	}
	JOINT LeftUpLegDummy
	{
		OFFSET 0 0 0
		CHANNELS 3 Zrotation Yrotation Xrotation
		JOINT LeftUpLeg
		{
			OFFSET 3.52197 -3.41223 0.04002
			CHANNELS 3 Zrotation Yrotation Xrotation
			JOINT LeftLeg
			{
				OFFSET -0.00012 -17.42399 1.60337
				CHANNELS 3 Zrotation Yrotation Xrotation
				JOINT LeftFoot
				{
					OFFSET -0.09972 -16.50070 -1.63802
					CHANNELS 3 Zrotation Yrotation Xrotation
					JOINT LeftToes
					{
						OFFSET -0.01575 -1.73823 3.34611
						CHANNELS 3 Zrotation Yrotation Xrotation
						End Site
						{
							OFFSET 0.03150 -0.01868 3.85031
						}
					}
				}
			}
		}
	}
}
MOTION
Frames: 16
Frame Time: 0.033333
4.4259 39.5455 -3.7951 1.3363 41.0770 -0.2055 0.0000 0.0000 0.0000 -6.8944 -6.4375 10.2859 -12.2678 -49.4870 8.6426 10.9865 -1.1850 0.9710 0.0000 -0.0000 0.0000 0.0000 0.0000 0.0000 2.0715 0.8869 7.3036 -1.3815 1.1639 -2.7040 -0.0000 0.0000 -0.0000 -7.8845 12.6470 5.0319 -0.0000 0.0000 -0.0000 -34.3805 -2.5072 2.4294 -43.8034 -17.6158 -18.1284 -9.7778 5.0829 49.9065 18.0961 -3.5759 -1.3751 -0.0000 0.0000 -0.0000 34.8661 5.2699 3.5873 40.0497 3.9988 -15.0765 11.2481 -1.8582 28.5498 -11.9741 1.9796 -0.7442 0.0000 0.0000 0.0000 6.0780 6.6037 -11.9704 4.6720 41.1199 4.2905 3.4147 -0.5146 4.8288 0.0000 0.0000 -0.0000
5.3997 39.4524 -3.7373 1.9758 44.6938 0.2535 0.0000 0.0000 0.0000 -8.5382 -7.4542 12.1680 -12.6004 -51.0490 9.2661 12.2940 -1.4834 2.4217 0.0000 -0.0000 0.0000 0.0000 0.0000 0.0000 1.0753 1.1197 7.2528 -0.8623 1.3031 -2.7259 -0.0000 0.0000 -0.0000 -7.7815 11.5622 4.8429 -0.0000 0.0000 -0.0000 -34.7649 -2.5326 2.4633 -43.4262 -17.2693 -18.9474 -9.3947 5.0762 50.2719 18.8143 -3.2347 -1.3787 -0.0000 0.0000 -0.0000 35.0615 5.2984 3.6164 39.6820 3.5387 -15.1872 11.2859 -1.4713 27.4643 -11.9155 1.9897 -0.7414 0.0000 0.0000 0.0000 4.5271 5.9370 -12.0807 4.5853 39.9894 5.3782 3.3584 -0.5918 7.1780 0.0000 0.0000 -0.0000
6.4531 39.3971 -3.7359 3.0559 48.3103 0.9357 0.0000 0.0000 0.0000 -10.9294 -8.9912 13.5274 -14.1588 -51.1656 12.1507 13.8598 -1.9215 4.4852 0.0000 -0.0000 0.0000 0.0000 0.0000 0.0000 0.1116 1.4213 7.2440 -0.5015 1.5442 -2.6171 -0.0000 0.0000 -0.0000 -7.6882 10.1821 4.7869 -0.0000 0.0000 -0.0000 -35.2164 -2.6355 2.5334 -42.8621 -17.0272 -19.3949 -9.3221 5.1016 49.4485 18.4643 -2.7923 -1.2848 -0.0000 0.0000 -0.0000 35.3482 5.3347 3.6571 39.2679 2.9106 -15.5073 11.2467 -0.9456 26.1109 -11.8087 1.8697 -0.7233 0.0000 0.0000 0.0000 2.5619 5.1499 -12.1184 4.1705 36.6468 6.7405 3.4877 -0.6173 7.3227 0.0000 0.0000 -0.0000
7.5330 39.3833 -3.8060 3.9095 51.8832 1.4444 0.0000 0.0000 0.0000 -13.5215 -11.5446 13.9377 -17.8408 -50.7436 17.7239 11.8939 -1.9925 8.1007 0.0000 -0.0000 0.0000 0.0000 0.0000 0.0000 -0.1148 1.7327 7.3015 -0.5894 1.8777 -2.4705 -0.0000 0.0000 -0.0000 -7.3846 8.7813 5.0044 -0.0000 0.0000 -0.0000 -35.2197 -2.7295 2.5723 -42.6452 -17.0998 -19.5278 -9.3353 5.1244 48.6695 17.3932 -2.4489 -1.1582 -0.0000 0.0000 -0.0000 35.4047 5.3335 3.6617 39.2150 2.3165 -15.8446 11.1567 -0.3958 25.0309 -11.8036 1.7467 -0.7113 0.0000 0.0000 0.0000 0.7177 4.8817 -12.0264 3.7593 32.6132 8.5374 3.0309 -0.4753 5.2198 0.0000 0.0000 -0.0000
8.5574 39.3667 -3.9389 4.1064 55.3115 1.4536 0.0000 0.0000 0.0000 -15.9394 -16.0903 13.2275 -21.7536 -46.6860 23.6917 5.3529 -1.0805 12.6221 0.0000 -0.0000 0.0000 0.0000 0.0000 0.0000 0.3030 1.9801 7.6674 -0.8201 2.1720 -2.6222 -0.0000 0.0000 -0.0000 -6.8461 7.7035 5.5044 -0.0000 0.0000 -0.0000 -34.6843 -2.7001 2.5265 -43.0346 -17.2507 -19.2280 -9.4244 5.1219 48.7230 16.0415 -2.4320 -1.0628 -0.0000 0.0000 -0.0000 35.0944 5.2820 3.6127 39.5511 1.9866 -15.7495 11.1756 0.2320 24.4354 -11.7595 1.6805 -0.7024 0.0000 0.0000 0.0000 -0.5438 4.8422 -11.8072 3.4788 29.2044 10.5650 1.7299 -0.2191 2.1753 0.0000 0.0000 -0.0000
9.4752 39.3378 -4.0898 3.7360 58.6502 0.9522 0.0000 0.0000 0.0000 -17.2650 -19.8063 11.6587 -21.8199 -37.6447 27.3500 -0.7722 0.2164 14.8743 0.0000 -0.0000 0.0000 0.0000 0.0000 0.0000 0.7112 2.0423 8.4748 -0.6905 2.2144 -3.1647 -0.0000 0.0000 -0.0000 -6.3169 7.1325 6.0384 -0.0000 0.0000 -0.0000 -34.1623 -2.5805 2.4455 -43.4061 -17.1056 -18.3409 -9.8765 5.1147 48.7895 14.6861 -2.7517 -1.0085 -0.0000 0.0000 -0.0000 34.7657 5.2353 3.5642 39.8313 2.0651 -15.0495 11.3827 1.1382 24.0941 -11.5136 1.7189 -0.6908 0.0000 0.0000 0.0000 -1.2625 4.1500 -11.3553 3.1958 26.7215 12.1132 0.3096 -0.0254 -0.4828 0.0000 0.0000 -0.0000
10.2977 39.3070 -4.2014 2.9062 62.0465 -0.0146 0.0000 0.0000 0.0000 -16.7851 -20.2740 9.3055 -17.8078 -26.1799 30.1505 -2.2572 0.5304 12.3780 0.0000 -0.0000 0.0000 0.0000 0.0000 0.0000 0.7889 1.8559 9.3877 -0.0889 1.9298 -3.6530 -0.0000 0.0000 -0.0000 -5.9539 6.9118 6.2471 -0.0000 0.0000 -0.0000 -34.0828 -2.5379 2.4236 -43.0578 -16.8099 -17.1363 -10.6847 5.1264 48.0556 13.8367 -3.2343 -1.0027 -0.0000 0.0000 -0.0000 34.7982 5.2460 3.5715 39.7671 2.5740 -14.0584 11.6557 2.4476 23.6668 -11.2937 1.8787 -0.6916 0.0000 0.0000 0.0000 -1.8340 3.1812 -10.7881 3.1455 24.1960 13.2850 -0.9183 0.0857 -2.6511 0.0000 0.0000 -0.0000
11.0484 39.2626 -4.2422 1.4812 65.4863 -1.4794 0.0000 0.0000 0.0000 -14.8268 -19.2609 6.3984 -12.6768 -16.0246 32.9691 -0.7029 0.1431 6.9679 0.0000 -0.0000 0.0000 0.0000 0.0000 0.0000 0.5921 1.5405 9.9828 0.8396 1.4653 -3.7313 -0.0000 0.0000 -0.0000 -5.5672 6.5899 6.0489 -0.0000 0.0000 -0.0000 -34.2036 -2.6460 2.4744 -42.2122 -16.9359 -16.2764 -11.3214 5.1402 47.2976 14.0064 -3.6239 -1.0599 -0.0000 0.0000 -0.0000 35.0791 5.2886 3.6139 39.6521 3.3184 -13.0366 11.7593 4.2353 22.7250 -11.3931 2.0726 -0.7155 0.0000 0.0000 0.0000 -2.2291 2.5084 -10.4359 3.4385 21.2871 14.7926 -2.3837 0.1621 -4.9133 0.0000 0.0000 -0.0000
11.7716 39.2241 -4.2155 -0.5128 68.8455 -3.3000 0.0000 0.0000 0.0000 -12.1147 -17.3661 3.2072 -9.9617 -11.2186 35.6545 0.4731 -0.0530 2.6783 0.0000 -0.0000 0.0000 0.0000 0.0000 0.0000 0.1386 1.2504 10.1751 1.9762 0.9882 -3.6094 -0.0000 0.0000 -0.0000 -4.8923 5.8485 5.7812 -0.0000 0.0000 -0.0000 -34.0653 -2.7930 2.5246 -41.5841 -17.7306 -16.2230 -11.3320 5.1314 47.5978 14.9295 -3.6920 -1.1403 -0.0000 0.0000 -0.0000 35.2742 5.3088 3.6397 39.9325 3.9727 -11.5276 11.4669 6.6147 20.4607 -11.5983 2.2367 -0.7439 0.0000 0.0000 0.0000 -2.3428 2.0067 -10.1678 3.6155 18.4439 16.1903 -4.0977 0.1925 -7.1709 0.0000 0.0000 -0.0000
12.5072 39.2411 -4.1502 -2.8023 72.1245 -5.2656 0.0000 0.0000 0.0000 -9.4788 -15.1708 0.1458 -10.2675 -10.9717 37.2617 0.0902 -0.0099 0.2276 0.0000 -0.0000 0.0000 0.0000 0.0000 0.0000 -0.5433 0.9530 10.2443 3.1305 0.4946 -3.7088 -0.0000 0.0000 -0.0000 -3.9973 4.8264 5.7884 -0.0000 0.0000 -0.0000 -33.6450 -2.8496 2.5204 -41.3007 -18.7940 -16.8574 -10.8334 5.1121 48.4865 15.6258 -3.4899 -1.1699 -0.0000 0.0000 -0.0000 35.3534 5.3050 3.6453 40.5853 4.3950 -8.9854 10.7294 9.4433 16.5505 -11.4877 2.4092 -0.7523 0.0000 0.0000 0.0000 -2.4290 1.4899 -9.4790 3.3449 15.7526 16.3852 -5.4360 0.1763 -8.7542 0.0000 0.0000 -0.0000
13.2521 39.3044 -4.0716 -5.4757 75.3569 -7.6579 0.0000 0.0000 0.0000 -7.2219 -12.6358 -2.6415 -12.1989 -12.9907 37.6978 -0.5382 0.0384 -1.9212 0.0000 -0.0000 0.0000 0.0000 0.0000 0.0000 -1.1978 0.5329 10.4895 4.0081 -0.0822 -4.0790 -0.0000 0.0000 -0.0000 -3.2063 3.8542 5.9689 -0.0000 0.0000 -0.0000 -33.2995 -2.8157 2.4849 -40.8727 -19.6144 -17.6414 -10.3459 5.1118 48.7034 15.5409 -3.3509 -1.1457 -0.0000 0.0000 -0.0000 35.4588 5.3104 3.6570 41.2736 4.7272 -4.7807 9.6013 12.3998 11.2480 -11.1269 2.5787 -0.7429 0.0000 0.0000 0.0000 -2.6184 0.8884 -8.2915 2.8900 13.1730 15.5869 -6.0500 0.1511 -9.5725 0.0000 0.0000 -0.0000
13.9963 39.3631 -3.9901 -9.1598 78.3621 -11.2155 0.0000 0.0000 0.0000 -5.2756 -9.5977 -5.2643 -14.3630 -15.7459 37.2464 -0.3069 0.0059 -3.9368 0.0000 -0.0000 0.0000 0.0000 0.0000 0.0000 -1.5799 0.0651 10.9001 4.5169 -0.6533 -4.3889 -0.0000 0.0000 -0.0000 -2.7059 3.0106 5.9076 -0.0000 0.0000 -0.0000 -33.2469 -2.7770 2.4664 -40.0998 -20.1526 -18.1103 -10.1978 5.1328 48.0384 15.1096 -3.3879 -1.1173 -0.0000 0.0000 -0.0000 35.5297 5.3239 3.6690 41.8311 5.0995 0.8770 8.1177 15.1750 5.6414 -10.8983 2.6612 -0.7343 0.0000 0.0000 0.0000 -2.7132 0.4811 -6.9342 2.4131 10.6740 14.8415 -6.0422 0.1230 -10.1673 0.0000 0.0000 -0.0000
14.7510 39.3886 -3.9112 -14.3600 80.8738 -16.4023 0.0000 0.0000 0.0000 -3.6285 -6.2388 -7.7295 -15.6451 -18.2158 35.8127 0.1046 -0.0248 -4.9856 0.0000 -0.0000 0.0000 0.0000 0.0000 0.0000 -1.7585 -0.2289 11.2845 4.8651 -1.0310 -4.4065 -0.0000 0.0000 -0.0000 -2.4229 2.1375 5.4197 -0.0000 0.0000 -0.0000 -33.3757 -2.7792 2.4754 -39.3857 -20.6664 -18.2375 -10.2425 5.1531 47.3086 15.0356 -3.3814 -1.1108 -0.0000 0.0000 -0.0000 35.4268 5.3160 3.6565 42.3049 5.4747 6.2306 6.4916 17.3955 1.4325 -10.8046 2.6682 -0.7283 0.0000 0.0000 0.0000 -2.5485 0.4962 -5.6474 1.7649 8.2804 14.6182 -5.7110 0.0853 -10.9473 0.0000 0.0000 -0.0000
15.5329 39.4034 -3.8404 -21.3073 82.8475 -23.3674 0.0000 0.0000 0.0000 -2.3527 -2.9999 -9.8777 -14.9076 -19.2780 32.8122 -0.0419 -0.0163 -5.0636 0.0000 -0.0000 0.0000 0.0000 0.0000 0.0000 -1.8883 -0.2983 11.5471 5.1966 -1.1853 -4.2184 -0.0000 0.0000 -0.0000 -2.2319 1.2108 4.7853 -0.0000 0.0000 -0.0000 -33.4908 -2.8023 2.4918 -39.1013 -21.1402 -18.2514 -10.2415 5.1634 46.9439 15.4070 -3.2418 -1.1217 -0.0000 0.0000 -0.0000 35.2042 5.2818 3.6224 42.6945 5.8138 9.1874 5.3548 18.6176 -0.0937 -10.5616 2.7461 -0.7178 0.0000 0.0000 0.0000 -2.2351 0.7618 -4.2917 0.9586 6.0851 14.4292 -5.3538 0.0518 -11.7338 0.0000 0.0000 -0.0000
16.3445 39.4355 -3.7804 -30.5138 84.3857 -32.5688 0.0000 0.0000 0.0000 -1.4634 -0.2995 -11.6523 -12.1001 -18.4195 28.0204 -0.2969 0.0018 -4.4154 0.0000 -0.0000 0.0000 0.0000 0.0000 0.0000 -1.9259 -0.3086 11.6956 5.3819 -1.2529 -4.0297 -0.0000 0.0000 -0.0000 -2.0620 0.4524 4.3524 -0.0000 0.0000 -0.0000 -33.5449 -2.8212 2.5027 -39.1450 -21.2436 -18.2266 -10.2287 5.1720 46.6424 15.7482 -3.1756 -1.1389 -0.0000 0.0000 -0.0000 34.9877 5.2430 3.5871 42.9333 6.1115 9.6486 5.1446 18.7739 0.5512 -10.2410 2.9201 -0.7092 0.0000 0.0000 0.0000 -1.9763 0.9717 -2.7247 0.2834 4.2325 13.8472 -4.8467 0.0368 -12.1958 0.0000 0.0000 -0.0000
17.1818 39.4698 -3.7367 -41.3457 85.4789 -43.3093 0.0000 0.0000 0.0000 -0.8662 1.4381 -13.1293 -8.6671 -16.5041 22.0173 -0.0426 -0.0076 -2.7561 0.0000 -0.0000 0.0000 0.0000 0.0000 0.0000 -1.8030 -0.3375 11.6846 5.2842 -1.2786 -3.9195 -0.0000 0.0000 -0.0000 -1.8465 0.0259 4.1258 -0.0000 0.0000 -0.0000 -33.5958 -2.8377 2.5125 -39.2910 -20.8365 -18.0863 -10.3371 5.1825 46.2179 15.7677 -3.2967 -1.1560 -0.0000 0.0000 -0.0000 34.8367 5.2197 3.5641 42.9549 6.2592 8.9594 5.6404 18.2519 1.8594 -10.1687 2.9775 -0.7086 0.0000 0.0000 0.0000 -1.8808 1.0574 -1.1155 -0.1191 2.9129 13.0919 -3.6306 0.0404 -12.4191 0.0000 0.0000 -0.0000
